<?xml version="1.0" encoding="UTF-8" standalone="no"?><!DOCTYPE svg PUBLIC "-//W3C//DTD SVG 1.1//EN" "http://www.w3.org/Graphics/SVG/1.1/DTD/svg11.dtd"><svg width="100%" height="100%" viewBox="0 0 1200 1200" version="1.1" xmlns="http://www.w3.org/2000/svg" xmlns:xlink="http://www.w3.org/1999/xlink" xml:space="preserve" xmlns:serif="http://www.serif.com/" style="fill-rule:evenodd;clip-rule:evenodd;stroke-linejoin:round;stroke-miterlimit:2;"><g id="logo"><path d="M881.643,207.879c-23.901,11.587 -47.075,17.377 -71.698,17.377c-68.8,-0.722 -107.906,23.897 -149.186,94.873c-56.488,96.318 -149.185,208.569 -213.64,257.816c-12.311,8.69 -49.246,31.864 -83.283,49.97c-34.038,18.829 -76.041,47.797 -93.422,63.729c-32.589,31.865 -73.144,105.01 -73.144,134.702c0,9.414 -7.967,26.072 -18.106,38.383c-23.898,28.244 -26.071,73.144 -6.518,121.666c16.657,38.383 36.935,55.764 78.215,65.178c20.277,5.07 43.452,14.484 51.418,21.726c52.143,46.349 152.082,63.006 232.469,39.831c168.739,-48.521 404.103,-247.677 519.256,-438.142c86.902,-144.116 97.039,-296.2 23.897,-360.656c-14.483,-13.032 -26.07,-30.416 -28.972,-45.621c-5.79,-34.04 -20.273,-52.869 -50.689,-67.352c-34.763,-16.655 -76.044,-14.482 -116.597,6.52Zm-113.702,193.362c-69.523,160.771 -147.013,257.814 -249.125,311.405c-52.143,27.52 -219.434,88.353 -225.952,81.835c-6.518,-6.518 21.002,-40.555 51.418,-62.281c16.657,-12.312 49.971,-32.59 73.869,-44.176c114.424,-58.661 206.398,-156.428 316.477,-337.479c21.001,-34.762 30.416,-44.176 47.073,-46.349c10.863,-1.452 21.002,0 22.45,2.173c1.449,2.895 -15.208,45.627 -36.21,94.872Zm244.781,-36.935c66.623,41.282 44.177,170.186 -56.486,315.027c-47.801,70.248 -172.362,196.259 -251.301,254.919c-73.868,55.764 -156.427,98.492 -213.639,110.079c-40.556,7.966 -91.25,5.07 -91.25,-5.794c0,-2.896 20.278,-14.484 44.901,-25.347l45.625,-19.553l-31.141,-28.244c-22.45,-21.002 -30.416,-33.314 -30.416,-49.246c0,-26.071 17.38,-42.728 108.63,-104.285c110.079,-73.869 180.326,-149.91 257.092,-278.094c35.485,-59.385 76.041,-120.939 90.523,-136.873c43.455,-47.801 85.459,-58.659 127.462,-32.589Z" style="fill:#ffcb3c;fill-rule:nonzero;stroke:#000;stroke-width:10px;"/><path d="M587.179,541.692c135.273,-171.708 162.02,-241.844 186.094,-251.773c14.687,-2.838 35.484,12.773 39.864,16.077c-0.263,35.949 -80.634,222.605 -169.393,317.358c-53.943,76.688 -251.619,161.117 -380.292,185.598c71.535,-128.254 185.822,-113.944 323.727,-267.26Z" style="fill:#fff;"/><g id="vinaigrette-saussage"><path d="M239.261,775.741l-62.193,237.623l-96.729,-11.59l-6.986,-245.911l67.211,8.053c-0.438,67.46 -1.827,124.362 -4.165,170.704c9.06,-46.041 17.634,-86.895 25.721,-122.558l9.93,-44.373l67.211,8.052Z" style="fill:#ff5757;fill-rule:nonzero;stroke:#000;stroke-width:5px;stroke-miterlimit:10;"/><path d="M220.627,1011.97l-21.036,-242.398l63.965,-5.39l21.036,242.397l-63.965,5.391Z" style="fill:#ff5757;stroke:#000;stroke-width:5px;stroke-miterlimit:10;"/><path d="M379.921,732.494l68.822,233.639l-54.038,15.457l-63.357,-97.039l31.286,106.213l-51.549,14.745l-68.822,-233.638l51.549,-14.746l65.55,95.316l-30.989,-105.202l51.548,-14.745Z" style="fill:#ff5757;fill-rule:nonzero;stroke:#000;stroke-width:5px;stroke-miterlimit:10;"/><path d="M448.479,689.587l152.883,194.423l-57.312,31.7l-24.512,-36.587l-20.079,11.106l18.395,39.971l-57.977,32.067l-92.381,-227.89l80.983,-44.79Zm48.043,152.811c-16.52,-22.455 -36.249,-50.544 -59.189,-84.268c17.414,43.672 30.761,75.292 40.041,94.859l19.148,-10.591Z" style="fill:#ff5757;fill-rule:nonzero;stroke:#000;stroke-width:5px;stroke-miterlimit:10;"/><path d="M608.639,874.592l-151.866,-191.808l50.614,-38.915l151.867,191.808l-50.615,38.915Z" style="fill:#ff5757;stroke:#000;stroke-width:5px;stroke-miterlimit:10;"/><path d="M671.262,609.508l-44.871,45.244l-16.032,-15.439c-10.105,-9.732 -16.857,-15.395 -20.255,-16.986c-3.397,-1.59 -6.694,-0.773 -9.892,2.45c-2.771,2.795 -3.563,5.743 -2.377,8.847c1.187,3.103 6.288,8.997 15.303,17.679l84.738,81.607c7.925,7.632 13.639,12.154 17.142,13.566c3.503,1.413 6.747,0.615 9.731,-2.394c3.269,-3.296 4.071,-6.901 2.408,-10.813c-1.663,-3.913 -6.602,-9.826 -14.818,-17.738l-20.939,-20.165l-9.059,9.135l-26.829,-25.837l52.545,-52.982l94.771,91.269l-28.244,28.479l-16.807,-7.991c2.397,8.331 2.632,16.156 0.705,23.476c-1.928,7.318 -6.054,14.166 -12.378,20.542c-7.531,7.594 -16.455,12.902 -26.772,15.923c-10.317,3.021 -19.943,3.591 -28.88,1.708c-8.936,-1.882 -16.866,-5.316 -23.79,-10.303c-6.923,-4.987 -16.456,-13.327 -28.598,-25.02l-52.456,-50.519c-16.868,-16.244 -28.23,-28.937 -34.089,-38.08c-5.857,-9.144 -7.757,-21.023 -5.698,-35.64c2.057,-14.617 9.766,-28.66 23.124,-42.129c13.145,-13.254 26.814,-21.592 41.009,-25.011c14.194,-3.419 26.404,-2.795 36.631,1.87c10.227,4.666 22.574,13.966 37.043,27.9l7.634,7.352Z" style="fill:#ff5757;fill-rule:nonzero;stroke:#000;stroke-width:5px;stroke-miterlimit:10;"/><path d="M598.994,551.745l27.004,-36.016c18.002,-24.011 31.13,-39.582 39.383,-46.713c8.255,-7.131 18.253,-10.563 29.997,-10.296c11.745,0.268 26.079,6.563 43.004,18.886c15.454,11.251 24.418,20.704 26.893,28.361c2.475,7.656 0.077,17.431 -7.197,29.323c10.085,-8.225 18.553,-12.523 25.403,-12.892c6.85,-0.369 12.369,0.318 16.56,2.061c4.191,1.744 14.3,8.45 30.325,20.118l52.37,38.129l-35.43,47.255l-65.984,-48.04c-10.629,-7.739 -17.83,-11.706 -21.604,-11.899c-3.773,-0.194 -8.287,3.215 -13.542,10.224l89.531,65.185l-38.149,50.882l-198.564,-144.568Zm72.122,-26.147l44.152,32.146c4.289,-5.721 6.498,-10.31 6.626,-13.767c0.126,-3.457 -4.184,-8.37 -12.933,-14.74l-10.915,-7.947c-6.296,-4.584 -11.256,-6.483 -14.879,-5.695c-3.624,0.787 -7.641,4.121 -12.051,10.003Z" style="fill:#ff5757;fill-rule:nonzero;stroke:#000;stroke-width:5px;stroke-miterlimit:10;"/><path d="M686.997,433.487l56.757,-89.441l41.89,25.814l-22.719,35.801l39.693,24.459l21.263,-33.507l39.823,24.538l-21.265,33.509l46.029,28.363l24.982,-39.37l41.892,25.814l-59.021,93.008l-209.324,-128.988Z" style="fill:#ff5757;fill-rule:nonzero;stroke:#000;stroke-width:5px;stroke-miterlimit:10;"/><path d="M801.037,233.631l44.082,21.987l-17.216,33.518l176.192,87.881l-28.992,56.444l-176.193,-87.881l-17.147,33.384l-44.082,-21.988l63.356,-123.345Z" style="fill:#ff5757;fill-rule:nonzero;stroke:#000;stroke-width:5px;stroke-miterlimit:10;"/><path d="M833.193,132.751l46.907,15.284l-11.97,35.667l187.486,61.101l-20.152,60.063l-187.492,-61.101l-11.922,35.524l-46.908,-15.287l44.051,-131.251Z" style="fill:#ff5757;fill-rule:nonzero;stroke:#000;stroke-width:5px;stroke-miterlimit:10;"/><path d="M824.355,181.842l5.474,-105.349l49.343,2.487l-2.191,42.17l46.749,2.36l2.056,-39.469l46.906,2.368l-2.056,39.469l54.218,2.735l2.412,-46.367l49.343,2.487l-5.699,109.551l-246.555,-12.442Z" style="fill:#ff5757;fill-rule:nonzero;stroke:#000;stroke-width:5px;stroke-miterlimit:10;"/></g><path d="M704.208,653.921c141.992,-178.062 129.287,-280.634 267.572,-312.595c149.515,26.413 81.882,201.267 29.661,283.713c-81.353,164.085 -459.722,524.829 -615.801,417.781c34.335,-45.507 62.306,-42.122 92.846,-53.574c-29.521,-15.974 -117.821,-76.084 13.367,-154.336c125.858,-85.571 97.26,-63.262 212.355,-180.989Z" style="fill:#fff;"/></g></svg>