<?xml version="1.0" encoding="UTF-8" standalone="no"?>
<!DOCTYPE svg PUBLIC "-//W3C//DTD SVG 1.1//EN" "http://www.w3.org/Graphics/SVG/1.1/DTD/svg11.dtd">
<svg width="100%" height="100%" viewBox="0 0 1200 1200" version="1.1" xmlns="http://www.w3.org/2000/svg" xmlns:xlink="http://www.w3.org/1999/xlink" xml:space="preserve" xmlns:serif="http://www.serif.com/" style="fill-rule:evenodd;clip-rule:evenodd;stroke-linejoin:round;stroke-miterlimit:2;">
	<g id="vinaigrette-logo">
		<g id="logo">
			<path id="logo-outline" d="M158,600l0,442l884,0l0,-884l-442,0l-442,0l0,442Zm869.5,0l0,427.5l-427.5,0l-427.5,0l-0.3,-426.5c-0.1,-234.6 0,-427.1 0.3,-427.8c0.3,-1 86.4,-1.2 427.7,-1l427.3,0.3l0,427.5Z" style="fill:#ff5757;fill-rule:nonzero;"/>
			<path id="logo-hotdog" d="M925.5,647.5c-3.3,1.6 -6.5,2.4 -9.9,2.4c-9.5,-0.1 -14.9,3.3 -20.6,13.1c-7.8,13.3 -20.6,28.8 -29.5,35.6c-1.7,1.2 -6.8,4.4 -11.5,6.9c-4.7,2.6 -10.5,6.6 -12.9,8.8c-4.5,4.4 -10.1,14.5 -10.1,18.6c0,1.3 -1.1,3.6 -2.5,5.3c-3.3,3.9 -3.6,10.1 -0.9,16.8c2.3,5.3 5.1,7.7 10.8,9c2.8,0.7 6,2 7.1,3c7.2,6.4 21,8.7 32.1,5.5c23.3,-6.7 55.8,-34.2 71.7,-60.5c12,-19.9 13.4,-40.9 3.3,-49.8c-2,-1.8 -3.6,-4.2 -4,-6.3c-0.8,-4.7 -2.8,-7.3 -7,-9.3c-4.8,-2.3 -10.5,-2 -16.1,0.9Zm-15.7,26.7c-9.6,22.2 -20.3,35.6 -34.4,43c-7.2,3.8 -30.3,12.2 -31.2,11.3c-0.9,-0.9 2.9,-5.6 7.1,-8.6c2.3,-1.7 6.9,-4.5 10.2,-6.1c15.8,-8.1 28.5,-21.6 43.7,-46.6c2.9,-4.8 4.2,-6.1 6.5,-6.4c1.5,-0.2 2.9,0 3.1,0.3c0.2,0.4 -2.1,6.3 -5,13.1Zm33.8,-5.1c9.2,5.7 6.1,23.5 -7.8,43.5c-6.6,9.7 -23.8,27.1 -34.7,35.2c-10.2,7.7 -21.6,13.6 -29.5,15.2c-5.6,1.1 -12.6,0.7 -12.6,-0.8c0,-0.4 2.8,-2 6.2,-3.5l6.3,-2.7l-4.3,-3.9c-3.1,-2.9 -4.2,-4.6 -4.2,-6.8c0,-3.6 2.4,-5.9 15,-14.4c15.2,-10.2 24.9,-20.7 35.5,-38.4c4.9,-8.2 10.5,-16.7 12.5,-18.9c6,-6.6 11.8,-8.1 17.6,-4.5Z" style="fill:#ff5757;fill-rule:nonzero;"/>
			<path id="logo-dash-line" d="M390,817.5l0,7.5l570,0l0,-15l-285,0l-285,0l0,7.5Z" style="fill:#ff5757;fill-rule:nonzero;"/>
			<g id="logo-title">
				<path d="M795.2,899.9l0.3,36.9l2.5,2.7c4.2,4.6 7.8,5.5 21,5.5c6.6,0 12,-0.3 12.1,-0.8c0.1,-1 0.1,-8.4 0,-9.9c-0.1,-0.9 -3.6,-1.3 -12.3,-1.5l-12.3,-0.3l-0.3,-18.8l-0.2,-18.7l12.5,0c6.9,0 12.5,-0.3 12.6,-0.8c0.1,-1 0.1,-8.4 0,-10c-0.1,-0.9 -3.3,-1.2 -12.6,-1.2l-12.5,0l0,-20l-5.5,0l-5.6,0l0.3,36.9Z" style="fill:#ff5757;fill-rule:nonzero;"/>
				<path d="M840.2,899.9l0.3,36.9l2.5,2.7c4.2,4.6 7.8,5.5 21,5.5c6.6,0 12,-0.3 12.1,-0.8c0.1,-1 0.1,-8.4 0,-9.9c-0.1,-0.9 -3.6,-1.3 -12.3,-1.5l-12.3,-0.3l-0.3,-18.8l-0.2,-18.7l12.5,0c6.9,0 12.5,-0.3 12.6,-0.8c0.1,-1 0.1,-8.4 0,-10c-0.1,-0.9 -3.3,-1.2 -12.6,-1.2l-12.5,0l0,-20l-5.5,0l-5.6,0l0.3,36.9Z" style="fill:#ff5757;fill-rule:nonzero;"/>
				<path d="M291.3,868.7c1.4,2.4 32.3,55.6 37.7,65l6.5,11.3l11,0l19.5,-33.7c10.7,-18.5 20.8,-35.8 22.3,-38.5l2.8,-4.9l-6.7,0.3l-6.7,0.3l-9.7,17c-5.3,9.3 -13.5,23.7 -18.2,31.8l-8.6,14.8l-4.9,-8.3c-2.7,-4.6 -8.7,-14.8 -13.3,-22.8c-4.6,-8 -10.8,-18.7 -13.8,-23.8l-5.4,-9.2l-6.5,0c-3.5,0 -6.2,0.3 -6,0.7Z" style="fill:#ff5757;fill-rule:nonzero;"/>
				<path d="M400,914l0,31l11,0l0,-62l-5.5,0l-5.5,0l0,31Z" style="fill:#ff5757;fill-rule:nonzero;"/>
				<path d="M424,914l0,31l11,0l0.2,-24.8l0.3,-24.7l19,-0.3c17,-0.2 19.1,-0.1 20.2,1.5c1,1.2 1.3,7.9 1.3,25l0,23.3l11.1,0l-0.3,-26.4c-0.4,-37.3 1.4,-35.6 -37,-35.6l-25.8,0l0,31Z" style="fill:#ff5757;fill-rule:nonzero;"/>
				<path d="M498,889l0,6l25.3,0.2l25.2,0.3l0.3,6.2l0.3,6.3l-25.6,0l-25.5,0l0,13.6c0,15.7 0.9,18.2 7.5,21.4c3.8,1.8 6.3,2 29.2,2c19.2,0 25.2,-0.3 25.5,-1.3c0.2,-0.6 0.3,-12.3 0.2,-25.9c-0.2,-36.2 1.3,-34.8 -36.6,-34.8l-25.8,0l0,6Zm51,37l0,7l-19.7,-0.2l-19.8,-0.3l-0.3,-6.8l-0.3,-6.7l40.1,0l0,7Z" style="fill:#ff5757;fill-rule:nonzero;"/>
				<path d="M572,914l0,31l11,0l0,-62l-5.5,0l-5.5,0l0,31Z" style="fill:#ff5757;fill-rule:nonzero;"/>
				<path d="M603.5,883.7c-3.3,0.9 -6.5,3.5 -8.1,6.4c-1.1,2.2 -1.4,7.4 -1.4,23.9c0,31.3 -0.9,30.4 29.8,30.8l21.3,0.3l-0.3,6.2l-0.3,6.2l-20,0.5l-20,0.5l0,4.5c0,2.5 0.1,5.1 0.3,5.7c0.3,1 5.2,1.3 20,1.3c17.5,0 20,-0.2 23.7,-2c7.5,-3.6 7.5,-3.4 7.5,-41.7c0,-45.5 1.9,-42.7 -29.5,-43c-11.5,-0.1 -21.9,0.1 -23,0.4Zm41,30.3l0,18.5l-19.5,0l-19.5,0l-0.3,-17.5c-0.1,-9.6 0,-18 0.3,-18.7c0.3,-1.1 4.6,-1.3 19.7,-1.1l19.3,0.3l0,18.5Z" style="fill:#ff5757;fill-rule:nonzero;"/>
				<path d="M675.5,883.8c-3.3,1.1 -6.3,3.7 -8,6.8c-1.2,2.4 -1.5,7.5 -1.5,28.6l0,25.8l11,0l0.2,-24.8l0.3,-24.7l18.3,-0.3l18.2,-0.2l0,-12l-18.2,0.1c-10.1,0.1 -19.2,0.4 -20.3,0.7Z" style="fill:#ff5757;fill-rule:nonzero;"/>
				<path d="M731,883.6c-4.1,1.5 -6.2,3.1 -8,6c-1.8,2.9 -2,5 -2,24.5c0,19.1 0.2,21.7 1.9,24.2c4,6.1 4.1,6.2 33.4,6.5l26.7,0.3l0,-12.1l-25.2,-0.2l-25.3,-0.3l-0.3,-6.3l-0.3,-6.2l51.1,0l0,-13.8c0,-11.6 -0.3,-14.1 -1.9,-16.5c-3.9,-6 -4.7,-6.2 -27.6,-6.4c-11.5,-0.1 -21.7,0 -22.5,0.3Zm40.8,18.6l0.3,6.8l-20.1,0l-20,0l0,-6.3c0,-3.5 0.3,-6.7 0.7,-7.1c0.4,-0.3 9.3,-0.5 19.7,-0.4l19.1,0.3l0.3,6.7Z" style="fill:#ff5757;fill-rule:nonzero;"/>
				<path d="M895,883.6c-4.1,1.5 -6.2,3.1 -8,6c-1.8,2.9 -2,5 -2,24.5c0,19.1 0.2,21.7 1.9,24.2c4,6.1 4.1,6.2 33.4,6.5l26.7,0.3l0,-12.1l-25.2,-0.2l-25.3,-0.3l-0.3,-6.3l-0.3,-6.2l51.1,0l0,-13.8c0,-11.6 -0.3,-14.1 -1.9,-16.5c-3.9,-6 -4.7,-6.2 -27.6,-6.4c-11.5,-0.1 -21.7,0 -22.5,0.3Zm40.8,18.6l0.3,6.8l-20.1,0l-20,0l0,-6.3c0,-3.5 0.3,-6.7 0.7,-7.1c0.4,-0.3 9.3,-0.5 19.7,-0.4l19.1,0.3l0.3,6.7Z" style="fill:#ff5757;fill-rule:nonzero;"/>
			</g>
		</g>
	</g>
</svg>